<svg width="62" height="54" viewBox="0 0 62 54" fill="none" xmlns="http://www.w3.org/2000/svg">
<path d="M59.0928 20.3562H55.5972C54.4995 20.3562 53.2758 21.197 52.8806 22.2235L47.7528 35.4687H27.8543V27.4518H12.4766C-0.4995 27.4518 0.00259046 37.629 0.00259046 41.3099H23.555H27.8543H61.0916V37.221V35.4667V22.3556C61.0916 21.2582 60.1924 20.3562 59.0928 20.3562Z" fill="#0050AF"/>
<path d="M49.5111 17.5983C52.2745 17.5983 54.5148 15.3509 54.5148 12.5787C54.5148 9.80644 52.2745 7.55908 49.5111 7.55908C46.7476 7.55908 44.5073 9.80644 44.5073 12.5787C44.5073 15.3509 46.7476 17.5983 49.5111 17.5983Z" fill="#0050AF"/>
<path d="M51.569 19.3527L46.0766 33.2107H30.1013V27.3695H39.286L42.0026 21.7141C43.883 17.9355 46.9872 17.8206 51.569 19.3527Z" fill="#0050AF"/>
<path d="M61.0916 52.6266C61.0916 53.1801 60.6449 53.6282 60.0931 53.6282H0.997217C0.447399 53.6282 0.000671387 53.1801 0.000671387 52.6266V44.4872C0.000671387 43.9337 0.447399 43.4856 0.997217 43.4856H60.0912C60.6429 43.4856 61.0897 43.9337 61.0897 44.4872V52.6266H61.0916Z" fill="#0050AF"/>
<path d="M26.8403 0H3.494C1.56582 0 0.000366211 1.57042 0.000366211 3.50473V16.9625C0.000366211 18.8968 1.56582 20.4711 3.494 20.4711H26.8403C28.7685 20.4711 30.3377 18.8968 30.3377 16.9625V3.50473C30.3377 1.57042 28.7665 0 26.8403 0ZM27.2565 12.4715H24.4195L22.2069 15.8383C21.9893 16.1754 21.6342 16.3688 21.2619 16.3688C21.2199 16.3688 21.176 16.365 21.1359 16.3611C20.7159 16.3094 20.3646 16.0202 20.2138 15.6027L17.2929 7.37716L13.6504 13.8465C13.427 14.2506 13.0185 14.4785 12.5832 14.4383C12.1536 14.4058 11.789 14.1089 11.6344 13.6761L9.94673 8.9744L8.16173 11.7973C7.90591 12.2014 7.41337 12.4715 6.93609 12.4715H3.07973V10.4701H6.63446L9.21746 6.38512C9.45991 6.004 9.87037 5.80482 10.2923 5.84696C10.7123 5.89101 11.0693 6.18594 11.2201 6.60919L12.86 11.1768L16.5006 4.69787C16.7259 4.29377 17.144 4.06587 17.5697 4.10608C18.0012 4.14439 18.3639 4.43549 18.5205 4.86831L21.5044 13.2663L22.9095 11.1289C23.1672 10.7363 23.6597 10.4701 24.1313 10.4701H27.2584V12.4715H27.2565Z" fill="#0267FF"/>
</svg>
