<svg width="49" height="73" viewBox="0 0 49 73" fill="none" xmlns="http://www.w3.org/2000/svg">
<path d="M48.2846 20.1326L37.373 1.22947C36.9119 0.461053 36.1435 0 35.2214 0H13.3982C12.4761 0 11.7077 0.461053 11.2467 1.22947L0.335084 20.1326C0.0277151 20.6705 -0.0491267 21.2853 0.0277154 21.9L10.9393 71.0789C11.1698 72.2316 12.1688 73 13.3982 73H35.2214C36.374 73 37.373 72.1547 37.6804 71.0789L48.5919 21.9C48.6688 21.2853 48.5919 20.6705 48.2846 20.1326ZM35.2982 28.8926C35.2982 29.3537 34.914 29.6611 34.5298 29.6611H27.5372V46.4895C27.5372 46.9505 27.153 47.2579 26.7688 47.2579H21.8509C21.3898 47.2579 21.0825 46.8737 21.0825 46.4895V29.6611H14.0898C13.6288 29.6611 13.3214 29.2768 13.3214 28.8926V23.9747C13.3214 23.5137 13.7056 23.2063 14.0898 23.2063H21.0825V16.6747C21.0825 16.2137 21.4667 15.9063 21.8509 15.9063H26.7688C27.2298 15.9063 27.5372 16.2905 27.5372 16.6747V23.2063H34.5298C34.9909 23.2063 35.2982 23.5905 35.2982 23.9747V28.8926Z" fill="#0050AF"/>
</svg>
