<svg width="47" height="75" viewBox="0 0 47 75" fill="none" xmlns="http://www.w3.org/2000/svg">
<path d="M25.2885 16.7C25.2885 14.4 25.3885 8.8 25.3885 6.7C32.2885 4.5 39.2885 2.2 46.1885 0C46.2885 22.3 46.1885 52.8 46.2885 75H30.5885C31.0885 74.1 31.3885 73.1 31.3885 72V66.1C31.3885 63.6 30.9885 61.1 30.2885 58.7L28.5885 52.9L28.2885 47C28.2885 46.3 28.1885 45.6 28.1885 44.9C29.8885 45.9 31.6885 46.8 33.4885 47.5C34.1885 47.8 34.8885 47.9 35.5885 47.9C36.7885 47.9 37.8885 47.6 38.7885 46.9C39.7885 46.2 40.4885 45.3 40.9885 44.2C42.1885 41.2 40.6885 37.9 37.6885 36.7C35.6885 35.9 33.6885 34.8 31.8885 33.6C30.2885 32.4 28.7885 31 27.4885 29.5C26.8885 28.8 26.0885 28.2 25.1885 27.8C25.1885 27.7 25.1885 27.6 25.1885 27.5C26.3885 26 27.0885 24.1 27.0885 22.1C27.0885 20.1 26.5885 18.2 25.2885 16.7Z" fill="#0267FF"/>
<path d="M25.4885 39.4C25.3885 41.9 25.3885 44.5 25.4885 47L25.7885 53.3L27.5885 59.5C28.1885 61.6 28.5885 63.8 28.5885 66.1V72C28.5885 73.6 27.2885 74.9 25.6885 74.9C25.5885 74.9 25.4885 74.9 25.3885 74.9C25.3885 61.5 25.3885 45.9 25.3885 31C25.4885 31.1 25.4885 31.1 25.5885 31.2C26.9885 32.9 28.6885 34.4 30.4885 35.7C32.4885 37.1 34.5885 38.3 36.8885 39.2C38.3885 39.8 39.1885 41.5 38.5885 43C38.1885 44.2 36.9886 44.9 35.8885 44.9C35.4886 44.9 35.1885 44.8 34.7885 44.7C31.9885 43.6 29.3885 42.2 27.0885 40.5C26.4885 40.2 25.9885 39.8 25.4885 39.4Z" fill="#0050AF"/>
<path d="M36.7885 39.3001C34.4885 38.4001 32.3885 37.2001 30.3885 35.8001C28.5885 34.5001 26.9885 33.0001 25.4885 31.3001C24.8885 30.6001 24.0885 30.3001 23.1885 30.3001C22.5885 30.3001 22.0885 30.3001 21.4885 30.3001C21.3885 30.3001 21.2885 30.3001 21.1885 30.3001H15.6885C14.8885 30.2001 14.1885 30.2001 13.3885 30.3001C8.28854 30.9001 5.28854 35.3001 3.68854 37.6001C1.98854 40.0001 0.788538 42.7001 0.0885375 45.6001C-0.311462 47.2001 0.688538 48.8001 2.18854 49.2001C2.38854 49.3001 2.68854 49.3001 2.88854 49.3001C4.18854 49.3001 5.38854 48.4001 5.68854 47.1001C6.28854 44.9001 7.18854 42.8001 8.38854 41.0001C9.18854 39.8001 10.3885 38.1001 11.7885 37.1001C12.0885 42.0001 12.0885 46.9001 11.6885 51.7001L11.5885 53.4001L10.5885 57.4001C9.88854 60.0001 8.48854 62.4001 6.48854 64.1001L3.28854 66.9001C2.08854 68.0001 1.98854 69.8001 2.98854 71.0001C4.08854 72.2001 5.88854 72.3001 7.08854 71.3001L10.2885 68.5001C13.1885 65.9001 15.2885 62.6001 16.2885 58.8001L16.7885 56.8001H20.6885L21.9885 61.2001C22.4885 62.8001 22.6885 64.4001 22.6885 66.1001V72.0001C22.6885 73.6001 23.9885 74.9001 25.5885 74.9001C27.1885 74.9001 28.4885 73.6001 28.4885 72.0001V66.1001C28.4885 63.9001 28.1885 61.7001 27.4885 59.5001L25.6885 53.3001L25.3885 47.1001C25.2885 44.6001 25.2885 42.0001 25.3885 39.4001C25.8885 39.8001 26.2885 40.1001 26.7885 40.5001C29.1885 42.2001 31.7885 43.7001 34.4885 44.7001C34.7885 44.8001 35.1885 44.9001 35.5885 44.9001C36.7885 44.9001 37.8885 44.2001 38.2885 43.0001C39.0885 41.6001 38.2885 39.9001 36.7885 39.3001Z" fill="#0050AF"/>
<path d="M18.4885 28C21.747 28 24.3885 25.3584 24.3885 22.1C24.3885 18.8415 21.747 16.2 18.4885 16.2C15.23 16.2 12.5885 18.8415 12.5885 22.1C12.5885 25.3584 15.23 28 18.4885 28Z" fill="#0050AF"/>
</svg>
