<svg width="682" height="554" viewBox="0 0 682 554" fill="none" xmlns="http://www.w3.org/2000/svg">
<path d="M509.141 343.671C509.141 343.671 492.212 268.954 415.3 239.276C354.272 215.763 302.022 213.569 302.022 213.569C302.022 213.569 240.262 186.399 193.864 157.243C118.102 109.696 93.9622 154.422 152.482 194.863" stroke="#3B3858" stroke-width="12" stroke-miterlimit="10" stroke-linecap="round" stroke-linejoin="round"/>
<path d="M95.7387 223.287C30.7397 182.01 55.7152 132.477 128.343 179.815C195.954 223.81 262.834 253.801 262.834 253.801C262.834 253.801 269.731 242.411 278.405 234.887" stroke="#3B3858" stroke-width="12" stroke-miterlimit="10" stroke-linecap="round" stroke-linejoin="round"/>
<path d="M225.005 339.178C225.005 339.178 189.789 333.221 89.4687 285.778C10.0487 248.158 7.74968 300.408 63.3437 335.834C146.526 388.92 238.799 416.717 238.799 416.717" stroke="#3B3858" stroke-width="12" stroke-miterlimit="10" stroke-linecap="round" stroke-linejoin="round"/>
<path d="M234.097 318.069C234.097 318.069 223.542 338.028 223.333 355.375" stroke="#3B3858" stroke-width="12" stroke-miterlimit="10" stroke-linecap="round" stroke-linejoin="round"/>
<path d="M368.797 376.066C368.797 376.066 315.816 356.316 286.869 418.075C286.869 418.075 220.512 411.805 151.019 426.226C81.5267 440.647 105.039 491.121 158.961 491.33C212.883 491.539 262.207 495.51 320.518 515.678C372.35 533.548 414.882 519.649 440.589 490.18" stroke="#3B3858" stroke-width="12" stroke-miterlimit="10" stroke-linecap="round" stroke-linejoin="round"/>
<path d="M504.647 329.877C504.647 329.877 572.468 357.361 640.184 368.856" stroke="#3B3858" stroke-width="12" stroke-miterlimit="10" stroke-linecap="round" stroke-linejoin="round"/>
<path d="M431.811 499.063L556.584 547.969" stroke="#3B3858" stroke-width="12" stroke-miterlimit="10" stroke-linecap="round" stroke-linejoin="round"/>
<path d="M235.56 289.854C235.56 289.854 177.353 275.433 83.9302 215.763C6.2867 166.23 -19.7338 220.361 37.7412 256.832C55.6107 268.222 81.8402 282.225 81.8402 282.225" stroke="#3B3858" stroke-width="12" stroke-miterlimit="10" stroke-linecap="round" stroke-linejoin="round"/>
<path d="M134.403 397.802C149.524 397.802 161.782 385.544 161.782 370.423C161.782 355.302 149.524 343.044 134.403 343.044C119.282 343.044 107.024 355.302 107.024 370.423C107.024 385.544 119.282 397.802 134.403 397.802Z" fill="#64E5F9"/>
<path d="M403.595 453.501C420.217 453.501 433.691 440.026 433.691 423.405C433.691 406.783 420.217 393.309 403.595 393.309C386.974 393.309 373.5 406.783 373.5 423.405C373.5 440.026 386.974 453.501 403.595 453.501Z" fill="#64E5F9"/>
<path d="M478.522 387.979C502.069 387.979 521.158 368.89 521.158 345.343C521.158 321.796 502.069 302.707 478.522 302.707C454.975 302.707 435.886 321.796 435.886 345.343C435.886 368.89 454.975 387.979 478.522 387.979Z" fill="#64E5F9"/>
<path d="M253.847 398.743C264.697 398.743 273.493 389.947 273.493 379.097C273.493 368.246 264.697 359.451 253.847 359.451C242.997 359.451 234.201 368.246 234.201 379.097C234.201 389.947 242.997 398.743 253.847 398.743Z" fill="#64E5F9"/>
<path d="M100.859 313.261C128.158 313.261 150.288 291.131 150.288 263.833C150.288 236.534 128.158 214.404 100.859 214.404C73.5606 214.404 51.4307 236.534 51.4307 263.833C51.4307 291.131 73.5606 313.261 100.859 313.261Z" fill="#64E5F9"/>
<path d="M316.651 401.773C366.227 401.773 406.417 361.584 406.417 312.008C406.417 262.432 366.227 222.242 316.651 222.242C267.075 222.242 226.886 262.432 226.886 312.008C226.886 361.584 267.075 401.773 316.651 401.773Z" fill="#64E5F9"/>
<path d="M208.807 313.261C236.106 313.261 258.236 291.131 258.236 263.833C258.236 236.534 236.106 214.404 208.807 214.404C181.509 214.404 159.379 236.534 159.379 263.833C159.379 291.131 181.509 313.261 208.807 313.261Z" fill="#64E5F9"/>
<path d="M410.702 351.822C446.08 351.822 474.76 323.142 474.76 287.764C474.76 252.385 446.08 223.705 410.702 223.705C375.323 223.705 346.643 252.385 346.643 287.764C346.643 323.142 375.323 351.822 410.702 351.822Z" fill="#64E5F9"/>
<path d="M501.094 321.726C524.641 321.726 543.73 302.637 543.73 279.09C543.73 255.543 524.641 236.454 501.094 236.454C477.547 236.454 458.458 255.543 458.458 279.09C458.458 302.637 477.547 321.726 501.094 321.726Z" fill="#64E5F9"/>
<path d="M644.991 6.03125C566.511 34.2462 506.11 41.4568 506.11 41.4568C348.733 6.44926 202.851 44.5917 152.273 63.0882C117.475 75.8372 109.533 99.2452 122.177 108.65C108.906 112.412 98.2466 116.174 88.2146 120.459C61.7761 131.64 45.6831 164.662 84.9751 169.156C10.3621 191.519 20.8122 241.574 90.5136 226.735C111.205 222.346 142.346 216.39 142.346 216.39C70.6586 237.812 75.0476 291.316 145.063 275.119C211.002 259.862 297.424 247.008 346.121 240.425C325.221 253.278 290.945 278.254 266.701 300.094C214.033 347.642 259.804 379.41 306.515 352.24C353.122 325.07 394.922 304.17 455.428 292.048C503.393 282.434 532.131 254.637 542.999 221.406L675.4 200.506" fill="white"/>
<path d="M85.0796 169.156C45.7876 164.662 61.8806 131.64 88.3191 120.459C146.003 96.1103 275.061 77.6138 275.061 77.6138" stroke="#3B3858" stroke-width="12" stroke-miterlimit="10" stroke-linecap="round" stroke-linejoin="round"/>
<path d="M286.556 187.548C286.556 187.548 226.05 191.414 142.346 216.39C70.6586 237.812 75.0476 291.316 145.063 275.119C241.203 252.86 384.159 235.513 384.159 235.513" stroke="#3B3858" stroke-width="12" stroke-miterlimit="10" stroke-linecap="round" stroke-linejoin="round"/>
<path d="M346.225 240.32C325.325 253.174 291.049 278.149 266.805 299.99C214.137 347.537 259.908 379.305 306.62 352.135C353.227 324.965 395.027 304.065 455.532 291.943C509.245 281.18 538.923 247.635 546.238 209.179" stroke="#3B3858" stroke-width="12" stroke-miterlimit="10" stroke-linecap="round" stroke-linejoin="round"/>
<path d="M644.991 6.03125C566.511 34.2462 506.11 41.4568 506.11 41.4568C348.733 6.44926 202.851 44.5918 152.273 63.0883C117.475 75.8373 109.533 99.2452 122.177 108.65" stroke="#3B3858" stroke-width="12" stroke-miterlimit="10" stroke-linecap="round" stroke-linejoin="round"/>
<path d="M542.999 221.406L675.4 200.506" stroke="#3B3858" stroke-width="12" stroke-miterlimit="10" stroke-linecap="round" stroke-linejoin="round"/>
<path d="M273.493 134.148C273.493 134.148 178.294 143.971 91.4541 167.379C11.4071 188.906 19.4536 241.992 90.6181 226.735C111.309 222.346 142.45 216.39 142.45 216.39" stroke="#3B3858" stroke-width="12" stroke-miterlimit="10" stroke-linecap="round" stroke-linejoin="round"/>
</svg>
