<svg width="633" height="604" viewBox="0 0 633 604" fill="none" xmlns="http://www.w3.org/2000/svg">
<path d="M207.5 145.6C141.5 142.5 116.5 173.5 6.3999 137.3" stroke="#3B3858" stroke-width="12" stroke-miterlimit="10" stroke-linecap="round" stroke-linejoin="round"/>
<path d="M6.3999 407.4C6.3999 407.4 58.9999 393.4 115.2 390.5" stroke="#3B3858" stroke-width="12" stroke-miterlimit="10" stroke-linecap="round" stroke-linejoin="round"/>
<path d="M315 592C475.163 592 605 462.163 605 302C605 141.837 475.163 12 315 12C154.837 12 25 141.837 25 302C25 462.163 154.837 592 315 592Z" stroke="#FF6496" stroke-width="24" stroke-miterlimit="10" stroke-linecap="round" stroke-linejoin="round"/>
<path d="M602.6 126.6C602.6 126.6 556.5 159.5 482.5 167.5C414.3 174.9 361.2 91.2002 304.1 91.2002C246.9 91.2002 212.9 152 157.8 183.6C107.8 212.2 119 245.1 177.9 243.8C236.7 242.5 275.5 183.9 301 184.4C341.1 185.2 458.3 282.1 500.9 329.4C531.6 363.4 493.7 422.1 452.1 379.9C409.4 336.6 369.2 309.6 369.2 309.6" stroke="#3B3858" stroke-width="12" stroke-miterlimit="10" stroke-linecap="round" stroke-linejoin="round"/>
<path d="M330.8 362.4C330.8 362.4 380.7 401 399.4 424.7C435.6 470.5 485 407.3 442.9 370.6" stroke="#3B3858" stroke-width="12" stroke-miterlimit="10" stroke-linecap="round" stroke-linejoin="round"/>
<path d="M226 376.6C282.5 325 317.6 384.5 273.4 429.7C261.3 442 237.5 468.2 223.2 482C189.5 514.7 136.7 483.8 167.6 441.6C180.9 423.3 209.4 391.8 226 376.6Z" stroke="#3B3858" stroke-width="12" stroke-miterlimit="10" stroke-linecap="round" stroke-linejoin="round"/>
<path d="M279.7 422.5C291.9 406.3 348.9 405.5 325.1 452.3C312.2 477.7 293.4 491.7 279.7 503.9C257.9 523.3 208.3 520.8 232.6 472.6" stroke="#3B3858" stroke-width="12" stroke-miterlimit="10" stroke-linecap="round" stroke-linejoin="round"/>
<path d="M325.1 452.3C325.1 452.3 378 495.7 401.7 470.4C420.5 450.3 399.5 424.7 399.5 424.7" stroke="#3B3858" stroke-width="12" stroke-miterlimit="10" stroke-linecap="round" stroke-linejoin="round"/>
<path d="M301 484.8C301 484.8 307 508.3 335 506.1C363 503.9 365.1 475.1 365.1 475.1" stroke="#3B3858" stroke-width="12" stroke-miterlimit="10" stroke-linecap="round" stroke-linejoin="round"/>
<path d="M112.1 395.4C128.1 369 161.6 327.9 190.5 342.5C218.3 356.6 195.6 406.7 170.7 437.4C145.8 468.1 126.9 465.2 114.8 457.2C98.7 446.6 97 420.2 112.1 395.4Z" stroke="#3B3858" stroke-width="12" stroke-miterlimit="10" stroke-linecap="round" stroke-linejoin="round"/>
<path d="M510.5 369.2C510.5 369.2 562.8 348.4 626.3 343.9" stroke="#3B3858" stroke-width="12" stroke-miterlimit="10" stroke-linecap="round" stroke-linejoin="round"/>
<path d="M520.1 96.8999L109.9 507.1" stroke="#FF6496" stroke-width="24" stroke-miterlimit="10" stroke-linecap="round" stroke-linejoin="round"/>
</svg>
