<svg width="72" height="49" viewBox="0 0 72 49" fill="none" xmlns="http://www.w3.org/2000/svg">
<path fill-rule="evenodd" clip-rule="evenodd" d="M68.7 45.3H53.1V44.3C53.1 43.9 53.2 43.4 53.1 43C52.6 37.6 50.6 32.5 46.8 28.5C48 28.5 49.1001 28.5 50.2001 28.5C53.7001 28.5 56.9 26.1 59.1 23.5C67.4 25.5 71.3001 30.6 71.9001 37C72.0001 37.3 72 37.5 72 37.8V41.9C72 43.8 70.5 45.3 68.7 45.3Z" fill="#0267FF"/>
<path fill-rule="evenodd" clip-rule="evenodd" d="M50.2 24.6C44.7 24.6 39.7 17.5 39.7 11.3C39.7 5.1 44.7 0 50.2 0C55.7 0 60.5999 5 60.5999 11.3C60.5999 17.5 55.7 24.6 50.2 24.6Z" fill="#0267FF"/>
<path fill-rule="evenodd" clip-rule="evenodd" d="M24.6 28.3C18.4 28.3 13.2 19.7 13.2 12.7C13.2 5.7 18.4 0 24.6 0C30.8 0 36 5.7 36 12.7C36 19.8 30.8 28.3 24.6 28.3Z" fill="#0050AF"/>
<path fill-rule="evenodd" clip-rule="evenodd" d="M14.4 26.3C16.9 29.3 20.6 32.1 24.6 32.1C28.6 32.1 32.1 29.4 34.7 26.5C44.1 28.8 48.5 34.5 49.2 41.8C49.3 42.1 49.3 42.4001 49.3 42.7001V45.2001C49.3 47.3001 47.6 49 45.6 49H3.7C1.7 49 0 47.3001 0 45.2001V42.7001C0 42.6 0 42.6 0 42.5C0 42.4 0 42.2 0 42.1C0 42 0 42.0001 0 41.9001C0.7 34.4001 4.3 28.5 14.4 26.3Z" fill="#0050AF"/>
</svg>
