<svg width="296" height="303" viewBox="0 0 296 303" fill="none" xmlns="http://www.w3.org/2000/svg">
<path d="M230.59 58.8578C236.928 58.8578 242.066 53.7197 242.066 47.3816C242.066 41.0436 236.928 35.9055 230.59 35.9055C224.252 35.9055 219.114 41.0436 219.114 47.3816C219.114 53.7197 224.252 58.8578 230.59 58.8578Z" stroke="#3B3858" stroke-width="12" stroke-miterlimit="10" stroke-linecap="round" stroke-linejoin="round"/>
<path d="M239.112 196.533C255.888 196.533 269.488 182.934 269.488 166.158C269.488 149.382 255.888 135.782 239.112 135.782C222.336 135.782 208.736 149.382 208.736 166.158C208.736 182.934 222.336 196.533 239.112 196.533Z" stroke="#3B3858" stroke-width="12" stroke-miterlimit="10" stroke-linecap="round" stroke-linejoin="round"/>
<path d="M102.004 267.095C109.326 267.095 115.261 261.16 115.261 253.838C115.261 246.517 109.326 240.582 102.004 240.582C94.6831 240.582 88.748 246.517 88.748 253.838C88.748 261.16 94.6831 267.095 102.004 267.095Z" stroke="#3B3858" stroke-width="12" stroke-miterlimit="10" stroke-linecap="round" stroke-linejoin="round"/>
<path d="M49.8503 245.657C64.4509 245.657 76.2871 233.821 76.2871 219.22C76.2871 204.62 64.4509 192.784 49.8503 192.784C35.2497 192.784 23.4136 204.62 23.4136 219.22C23.4136 233.821 35.2497 245.657 49.8503 245.657Z" stroke="#3B3858" stroke-width="12" stroke-miterlimit="10" stroke-linecap="round" stroke-linejoin="round"/>
<path d="M35.723 77.8331C44.6758 77.8331 51.9335 70.5754 51.9335 61.6226C51.9335 52.6698 44.6758 45.4121 35.723 45.4121C26.7701 45.4121 19.5125 52.6698 19.5125 61.6226C19.5125 70.5754 26.7701 77.8331 35.723 77.8331Z" stroke="#3B3858" stroke-width="12" stroke-miterlimit="10" stroke-linecap="round" stroke-linejoin="round"/>
<path d="M247.671 132.525C246.687 128.131 243.96 124.192 240.134 121.806C237.218 119.95 233.961 119.268 231.272 119.874C227.825 120.67 225.855 122.866 224.075 124.798C222.333 126.692 220.932 128.283 218.243 128.699C213.243 111.883 202.638 97.3008 188.094 87.3018C189.079 83.931 191.01 82.8326 193.207 81.5448C194.874 80.5979 196.578 79.6132 197.639 77.6816C198.926 75.4091 199.078 72.5684 198.055 69.6899C196.502 65.2586 192.563 61.5089 187.261 59.3879C181.807 57.1912 175.974 56.8882 172.073 58.5547C169.876 59.5016 168.323 61.0544 167.528 63.0239C166.354 66.0161 166.77 69.1218 167.149 72.0761C167.414 73.9319 167.642 75.6742 167.452 77.2649C160.104 74.9924 152.454 73.8183 144.651 73.8183C137.19 73.8183 129.842 74.8788 122.76 76.9998C119.048 74.5379 119.427 72.4927 119.919 69.6899C120.26 67.7962 120.639 65.6752 119.578 63.5542C116.889 58.1381 108.557 55.1081 99.3151 59.3501C94.8837 61.3953 91.5129 64.7283 90.1494 68.5158C89.1646 71.1671 89.2404 73.9319 90.3387 76.2802C91.778 79.3481 94.2777 81.0525 96.5124 82.5674C99.0879 84.3097 100.565 85.4459 100.868 87.5669C91.3992 94.1572 83.4834 102.868 77.84 112.905C77.7264 112.867 77.6127 112.83 77.4991 112.792C74.507 111.921 70.7574 112.451 67.5001 114.193C64.811 115.632 61.2129 118.511 59.3949 124.154C58.0314 128.472 58.4101 132.865 60.4554 136.236C62.084 138.888 64.6216 140.668 67.4622 141.16C67.7652 141.198 68.0682 141.236 68.4091 141.274C68.0682 144.152 67.9167 147.182 67.9167 150.553C67.9167 161.916 70.3407 172.824 75.113 183.012C72.992 184.035 70.6816 183.997 68.2197 183.959C65.72 183.921 63.1445 183.883 60.872 185.133C58.2586 186.572 56.2512 189.526 55.4937 193.011C54.509 197.518 55.6074 202.29 58.6374 206.381C61.8189 210.736 66.629 213.842 71.1361 214.524C73.8631 214.941 76.2871 214.41 78.143 213.047C81.0972 210.85 82.4229 207.517 83.5591 204.601C84.4302 202.442 85.0741 200.889 85.9452 200.056C100.565 217.402 121.851 227.326 144.614 227.326C147.227 227.326 149.84 227.212 152.416 226.947C152.378 227.212 152.34 227.439 152.302 227.704C152.037 229.712 151.772 231.643 152.264 233.575C152.832 235.81 154.461 237.666 156.961 238.953C159.233 240.09 161.96 240.696 164.839 240.696C167.755 240.696 170.861 240.127 173.777 238.953C178.095 237.211 181.504 234.067 183.132 230.242C184.344 227.401 184.458 224.409 183.435 221.872C182.792 220.319 181.845 219.107 180.784 218.084C192.26 211.911 201.994 202.934 209.077 191.988C217.031 179.755 221.235 165.589 221.31 150.97C225.59 148.962 229.037 149.682 232.37 150.364C234.264 150.742 236.082 151.121 237.9 150.97C240.665 150.705 243.354 149.076 245.247 146.5C248.012 142.827 248.846 137.751 247.671 132.525Z" fill="#29EB7F"/>
<path d="M150.636 122.033C148.477 117.753 148.515 113.133 151.128 110.103C155.029 105.558 163.172 106.202 169.346 111.504C175.52 116.807 177.376 124.798 173.512 129.305C171.013 132.222 166.695 133.017 162.339 131.767" fill="#29EB7F"/>
<path d="M150.636 122.033C148.477 117.753 148.515 113.133 151.128 110.103C155.029 105.558 163.172 106.202 169.346 111.504C175.52 116.807 177.376 124.798 173.512 129.305C171.013 132.222 166.695 133.017 162.339 131.767" stroke="#3B3858" stroke-width="12" stroke-miterlimit="10" stroke-linecap="round" stroke-linejoin="round"/>
<path d="M129.123 157.901C136.281 157.901 142.114 163.696 142.114 170.892C142.114 178.088 136.319 183.883 129.123 183.883C121.964 183.883 116.132 178.088 116.132 170.892C116.132 168.392 116.851 166.044 118.101 164.037" fill="#29EB7F"/>
<path d="M129.123 157.901C136.281 157.901 142.114 163.696 142.114 170.892C142.114 178.088 136.319 183.883 129.123 183.883C121.964 183.883 116.132 178.088 116.132 170.892C116.132 168.392 116.851 166.044 118.101 164.037" stroke="#3B3858" stroke-width="12" stroke-miterlimit="10" stroke-linecap="round" stroke-linejoin="round"/>
<path d="M177.868 156.651C183.928 159.719 190.026 158.014 193.207 161.423C196.957 165.438 197.146 171.157 191.995 176.838C186.844 182.52 179.686 183.807 175.292 180.474C169.99 176.46 171.846 170.172 171.846 170.172" fill="#29EB7F"/>
<path d="M177.868 156.651C183.928 159.719 190.026 158.014 193.207 161.423C196.957 165.438 197.146 171.157 191.995 176.838C186.844 182.52 179.686 183.807 175.292 180.474C169.99 176.46 171.846 170.172 171.846 170.172" stroke="#3B3858" stroke-width="12" stroke-miterlimit="10" stroke-linecap="round" stroke-linejoin="round"/>
<path d="M166.771 83.1736C173.058 77.7196 167.263 69.8794 169.649 63.8194C171.505 59.1229 179.383 58.6306 186.428 61.4712C194.874 64.8421 198.093 72.2277 195.669 76.5454C193.359 80.6359 186.049 79.4239 185.254 90.5592" fill="#29EB7F"/>
<path d="M166.771 83.1736C173.058 77.7196 167.263 69.8794 169.649 63.8194C171.505 59.1229 179.383 58.6306 186.428 61.4712C194.874 64.8421 198.093 72.2277 195.669 76.5454C193.359 80.6359 186.049 79.4239 185.254 90.5592" stroke="#3B3858" stroke-width="12" stroke-miterlimit="10" stroke-linecap="round" stroke-linejoin="round"/>
<path d="M87.9526 141.274C80.1882 134.305 74.507 140.062 67.841 138.963C62.8793 138.13 59.2433 132.146 61.5537 124.912C64.3186 116.276 72.3481 113.739 76.8552 115.026C81.3623 116.314 81.5896 123.965 91.7022 120.783" fill="#29EB7F"/>
<path d="M87.9526 141.274C80.1882 134.305 74.507 140.062 67.841 138.963C62.8793 138.13 59.2433 132.146 61.5537 124.912C64.3186 116.276 72.3481 113.739 76.8552 115.026C81.3623 116.314 81.5896 123.965 91.7022 120.783" stroke="#3B3858" stroke-width="12" stroke-miterlimit="10" stroke-linecap="round" stroke-linejoin="round"/>
<path d="M169.384 208.312C169.763 216.456 179.004 216.645 181.466 222.667C183.36 227.326 180.14 233.954 173.058 236.757C164.612 240.127 155.787 237.779 154.537 232.969C153.363 228.424 157.718 222.591 151.696 214.07" fill="#29EB7F"/>
<path d="M169.384 208.312C169.763 216.456 179.004 216.645 181.466 222.667C183.36 227.326 180.14 233.954 173.058 236.757C164.612 240.127 155.787 237.779 154.537 232.969C153.363 228.424 157.718 222.591 151.696 214.07" stroke="#3B3858" stroke-width="12" stroke-miterlimit="10" stroke-linecap="round" stroke-linejoin="round"/>
</svg>
